<?xml version="1.0" encoding="utf-8"?>
<!-- Generator: Adobe Illustrator 23.0.4, SVG Export Plug-In . SVG Version: 6.00 Build 0)  -->
<svg version="1.1" id="Layer_1" xmlns="http://www.w3.org/2000/svg" xmlns:xlink="http://www.w3.org/1999/xlink" x="0px" y="0px"
	 viewBox="0 0 195 155" style="enable-background:new 0 0 195 155;" xml:space="preserve">
<style type="text/css">
	.st0{fill:#151719;}
	.st1{fill:#121417;}
	.st2{fill:url(#Path_184_2_);}
	.st3{fill:#FFFFFF;}
</style>
<path id="Path_181_1_" class="st0" d="M90.5076599,56.0373497v0.0772743l0.0461655-0.0571976L90.5076599,56.0373497z"/>
<path id="Path_182_1_" class="st1" d="M97.496994,41C75.1294632,41.0016632,56.998333,59.1354713,57,81.5029984
	C57.0016708,103.8705368,75.1354828,122.0016556,97.503006,122C119.8693619,121.9983292,138,103.8663559,138,81.4999924
	C137.9745636,59.1418419,119.8551483,41.0237808,97.496994,41z M134.497818,81.4999924
	c0,0.7094727-0.0622101,1.404892-0.1003571,2.1013107c-0.259903-0.6572876-0.6552734-1.5152664-0.7496033-1.8835526
	c-0.1364746-0.5609589-0.9743805-2.5087357-0.9743805-2.5087357c-0.3891754-0.5350037-0.859848-1.0056839-1.3948669-1.3948517
	c-0.5549164-0.2799835-0.9753876-0.9774017-1.9527893-1.5323334c-0.640976-0.4970856-1.4170761-0.7891388-2.2267456-0.8379211
	c-0.8409271,0-1.6728363-1.1168976-2.6532364-1.6748352c-0.9804001-0.5579453-1.1148758-0.2769699-1.1148758-0.2769699
	c0.4580307,0.646759,0.8326111,1.3487244,1.1148758,2.0892792c0,0.41745,1.2523575,1.1148758,2.5087357,0.8349075
	c0.3617477,0.6850128,0.7807007,1.3382568,1.2523651,1.9527969c0.41745,0.41745-0.1404877,0.8379211-0.9754028,1.3948517
	c-0.4142685,0.2186584-0.7920609,0.5003128-1.1198959,0.8349075c-0.7097778,0.5164337-1.4548645,0.9825363-2.2297592,1.3948593
	c-0.4174576,0.2769623-2.090271,1.1148758-2.9251785,0.2769623c-0.4084244-0.4013901-0.2829819-1.2513504-0.5569305-1.8123093
	s-3.2111816-4.8799973-4.603035-6.8297729c-0.343895-0.6087646-0.7648087-1.1706696-1.2523575-1.6718216
	c-0.4174576-0.2829819,0.9784088-0.2829819,0.9784088-0.2829819c-0.0015182-0.5605011-0.0485077-1.1199417-0.1404877-1.6728363
	c-0.063652-0.5610809-0.0159073-1.1292191,0.1404877-1.671814c0,0-1.3958664,0.8348999-1.8183289,1.1148682
	c-0.4224548,0.2799683-0.8349075-0.554924-1.3898315-1.2553787c-0.5742188-0.6451111-1.0021286-1.4067841-1.254364-2.2327728
	c-0.1404877-0.6944199,0.7024384-0.9743881,0.7024384-0.9743881l1.2523651-0.6944199
	c0.8271713-0.150795,1.6699066-0.1979828,2.5087357-0.1404877c0.9743805,0.1404877,2.508728,0.2799835,2.508728,0.2799835
	s0.4174576-0.9774055-0.1404877-1.3948593c-0.5579376-0.41745-1.8153229-1.114872-2.3722534-0.9753952
	c-0.5569305,0.1394806,0.2769623-0.7024422,0.9723816-1.254364l-1.5443802-0.2799835c0,0-1.4048843,0.7024422-1.823349,0.8369141
	c-0.6659241,0.1957321-1.2593307,0.5835419-1.7059402,1.114872c-0.554924,0.6974373,0.2227783,1.6728325-0.3351669,1.9528008
	c-0.4342346,0.2224808-0.8863983,0.4081116-1.3516998,0.554924c-0.5791397,0.0720596-1.1649475,0.0720596-1.7440796,0
	c-1.4410248,0-0.5178146,1.3145752-0.1424942,1.7811966l-1.1148758-1.3607407l-0.8268814-1.9497833
	c0,0-1.1891403-0.8349075-1.7460861-1.1128654c-0.5569458-0.2779617-2.2759323-1.2543678-2.2759323-1.2543678l0.1204147,1.2543678
	l1.6146164,1.6356964l0.1435013,0.0371361l0.8399353,1.1148682l-1.8554611,0.1404877v-1.1038437
	c-1.7490845-0.4234734-1.2914963-0.8579865-1.4891739-0.9914589c-0.414444-0.2779617-1.3838196-0.9784126-1.3838196-0.9784126
	s-1.6407089,0.2799797-2.0611725,0.4204674c-0.4204712,0.1404915-0.5368729,0.5569344-1.3687668,0.8349075
	c-0.6181946,0.1758156-1.1502914,0.572567-1.4952087,1.114872c-0.5269089,0.7826996-1.1076508,1.5277557-1.7380447,2.2297668
	c-0.5609589,0.5599442-1.5955582,0.41745-2.0130081,0.41745c-0.8208237-0.1393051-1.6329727-0.325592-2.4324646-0.5579376
	v-2.3642349c0.1310272-0.5711403,0.1763458-1.1585884,0.1344681-1.7430687l1.220253-0.2067108l2.0381012-0.4194603
	l0.6021042-0.4204712l0.856987-1.114872c-0.5333328-0.3717346-0.6643295-1.1054268-0.2926025-1.6387482
	c0.0080261-0.0115128,0.0162506-0.0228767,0.0246735-0.0340843c0.3341522-0.4686279,1.5373459-0.5569305,2.0952911-0.9743843
	c0.432106-0.2961998,0.9023438-0.5324783,1.3978729-0.7024422c0,0,0.9774017-0.8349075,1.9527969-1.8123093
	c0.4868317-0.2831917,1.0000153-0.5184364,1.5323257-0.7024422c0,0,2.372261,2.092289,2.7927246,2.092289
	c0.6907501-0.2379951,1.3472824-0.5655823,1.9528046-0.9743919c0.1967087-0.535305,0.2916641-1.1026459,0.2799759-1.6728249
	c-0.1404877-0.4174538-0.8379211-1.8123093-0.8379211-1.8123093s-0.4174576,0.6974297-0.8349075,1.2543678
	c-0.2806702,0.3906746-0.5163116,0.8118019-0.702446,1.2553711c0,0-1.9527969-0.1344719-2.0892715-0.5519257
	s-0.41745-1.1088638-0.5609589-1.5233002c-0.1435013-0.4144363-1.2513504-0.4014015-2.0832596-0.126442
	c-0.8319016,0.2749596,0.133461-1.5052376,0.133461-1.5052376s0.8409271-1.0516586,1.3958664-1.0516586
	c0.8095093-0.2226677,1.6005936-0.5075035,2.3662415-0.8519669c0.9533005-0.3406143,1.9334564-0.6007614,2.9301987-0.7777061
	c0.702446,0,1.535347,0.3010483,1.9558182,0.3010483h2.0902634l2.9241867-0.2348175c0,0,2.5087357,0.9292374,1.6718216,1.4901886
	c0.4941635,0.3002319,0.9621201,0.6416245,1.3988647,1.0205498c0.3913651,0.394371,1.4048843-0.3632622,1.9839096-0.6863861
	c10.8150635,6.7467461,17.3925705,18.5882034,17.4055252,31.3351212H134.497818z M67.9712067,59.6820374
	c0,0.5569305-0.760643,0.6914024,0,2.092289c0.9723816,1.8123093,0.1374741,2.6502342,0.1374741,2.6502342
	s-2.3732681,1.6728287-2.789711,1.9527969s-1.5323257,1.8123093-0.8379211,1.3918381s1.5323257-0.8349075,0.8379211,0.2799835
	s-1.9527969,2.9271927-2.2307739,3.6276321c-0.2779732,0.7004395-1.6718178,2.3702545-1.6718178,3.211174
	c0,0.8409271-0.5579453,2.5087357-0.4174538,3.2111816c0.0034599,0.8573074-0.1516838,1.7078476-0.4575882,2.508728
	c0.1761055-7.5642776,2.6852226-14.889389,7.1840057-20.9730034c0.0834198,0.0066757,0.1658783,0.0224915,0.2458496,0.0471458
	H67.9712067z M72.4508133,54.3354187c3.4392929-3.1754913,7.4485626-5.6712875,11.816124-7.3556099
	c-0.4345093,0.5579414-0.9613342,1.1299324-0.9613342,1.1299324s-0.9743881,0-2.789711,1.9517975
	c-0.6380539,0.6156693-1.2411118,1.2666168-1.8062897,1.9497871c-0.2889099,0.5687294-0.7230377,1.0509682-1.2583847,1.3978653
	c-0.5716934,0.4014053-1.047081,0.9247894-1.3918381,1.5323334l-1.5353394,0.5579414l-1.2523651-0.5579414
	c0,0-1.120903,0.4204636-0.9804153-0.1394844c0.037117-0.1485062,0.0973206-0.3030434,0.1595383-0.4666138L72.4508133,54.3354187z
	 M89.1639938,57.5887489l-0.554924-0.8338966l0.554924-1.2553711l1.3436813,0.5378761v-2.4906731l1.2834778-0.694416
	l1.0657043,1.5323334l1.6407089,1.8153191l-1.0887985,0.8348999l-2.9041061,0.5569305v-1.4781456L89.1639938,57.5887489z
	 M107.2930908,70.6963806c0.3261337-0.256897,1.3918381,0.41745,1.3918381,0.41745
	c1.3787613,0.2465744,2.7318649,0.6197739,4.0420685,1.1148758c0.5609589,0.4204712,1.535347,0.7024384,1.8153305,1.120903
	c0.5122375,0.66259,0.9766769,1.3607712,1.3898315,2.0892792c0.1424942,0.41745,0.8399277,1.9558105,0.9804153,2.5087357
	c0.2247086,0.9171906,0.5518951,1.8061981,0.9753952,2.6502304c0.4164429,0.7024384,2.789711,3.7651062,3.6246185,5.1599579
	l2.5157623-0.41745c-0.1219406,0.5770187-0.310173,1.1380234-0.5609589,1.6718216
	c-0.2769623,0.41745-1.1148682,1.5323257-1.5323257,2.090271c-0.5155258,0.7685699-1.1242599,1.4703369-1.8123093,2.0892715
	c-0.8349075,0.6954117-0.8399277,1.3928452-1.254364,1.9527969c-0.3736496,0.5772171-0.7008209,1.1832275-0.9784164,1.8123093
	c0,0,0.280983,2.7907181,0.4174576,3.3476562c0.1364746,0.5569305-0.9743881,2.0902634-0.9743881,2.0902634l-1.2583771,1.2573853
	l-1.6808548,2.2267456l0.1374741,2.090271c0,0-1.2694244,0.9804153-1.9698563,1.535347
	c-0.7004395,0.554924-0.5830231,0.9743805-1.1409683,1.5353394c-1.0073929,0.7192993-2.1173096,1.2828979-3.2924652,1.6718216
	c-0.5579453,0.1404877-3.6336517,0.5579453-3.6336517,0.5579453v-1.2513199l-0.0632248-1.3948593
	c-0.1843109-0.7766113-0.4676056-1.5263367-0.8429337-2.2307739c-0.4204712-0.5569305-0.2378235-1.3978729-0.9352646-2.0922928
	c-0.4969788-0.4598618-0.8730011-1.0350952-1.0948105-1.6748352c-0.0412521-0.561142,0.0099335-1.1252518,0.1515274-1.6698151
	c0,0,0.5629654-1.5353394,0.8409271-2.0922852c0.185997-0.6610718,0.0850906-1.3698883-0.2779617-1.9528046
	c-0.2612076-0.7635498-0.4010544-1.5633621-0.4144363-2.3702469c0-0.4174576-1.1209106-1.1178894-1.5383606-1.535347
	c-0.4174576-0.41745-0.2769699-0.9774017-0.2769699-1.5293274c-0.1827469-0.9197617-0.2765045-1.8549805-0.2799759-2.7927246
	c0.1404877-0.9743805-1.2523651-0.2799835-2.090271,0c-0.8379135,0.2799835-1.3918381-0.2799835-1.3918381-1.1178894
	s-1.5323334-0.1374741-2.5087357,0.4174576c-1.0436096,0.4080505-2.1172028,0.7348099-3.211174,0.9774017
	c-0.5846176,0.2703476-1.2786255,0.0965424-1.6668015-0.4174576c-0.5312195-0.4521942-1.0898972-0.8711166-1.6728287-1.254364
	c-0.7533875-0.5402145-1.4145203-1.1986313-1.9578247-1.9497833c-0.8779755-1.0936966-1.582016-2.3162766-2.087265-3.6246185
	c-0.06987-0.7905502-0.06987-1.5857239,0-2.3762665c-0.0319138-0.7460251,0.0141602-1.4933167,0.1374664-2.2297668
	c0.2061691-0.7910995,0.5360336-1.5446548,0.9774017-2.2327805c0.6829987-0.7313309,1.4830246-1.3438187,2.3672409-1.8123093
	c0.41745-0.2769623,1.3948517-1.1118698,1.3948517-1.6728287s0.5609589-0.8338928,0.8349075-1.3948517
	s1.2583771-1.9497833,2.5087357-1.3918381c0.5151138-0.0598755,1.0259247-0.1523895,1.5293274-0.2769699
	c0.7090836-0.2410889,1.4048233-0.519783,2.0842514-0.8349075c0.6289291-0.2190704,1.2830429-0.3576431,1.9467773-0.4124298
	c0.4867706,0.2030869,0.995163,0.3498688,1.515274,0.4375305c0.41745,0,1.7781906-0.2428513,1.7781906-0.2428513
	c0.2610703,0.799736,0.4712296,1.6151962,0.6291885,2.4414978c0,0.4204712,0.4174576,0.8349075,1.1178894,1.1148758
	C102.6980667,71.109787,105.8992462,71.8142853,107.2930908,70.6963806z M123.327919,98.029541
	c-0.0336304,0.7041245-0.1272888,1.4041061-0.2799835,2.0922928c-0.1465073,0.5579376-0.4204712,1.5353394-0.5579453,2.087265
	c-0.2498932,0.7448883-0.6801147,1.4164352-1.2523575,1.9548035c-0.4174576,0.2809753-1.1178894,1.1178894-1.5323257,1.2553787
	s-0.702446-0.9774017-0.5599518-1.535347c0.2429886-0.7104492,0.5226822-1.4078064,0.8379288-2.0892715
	c0,0,0.1394882-0.8349075,0.2769623-1.3948517c0.1374741-0.5599518,1.8153229-1.2523651,1.8153229-1.2523651l1.1178894-2.0932846
	c0.0730591,0.3206329,0.1183777,0.646965,0.1354675,0.9753799H123.327919z M61.4494972,89.721611
	c0.3029175,0.1026688,0.5777702,0.2744522,0.8027954,0.5017471c0.4424591,0.4229355,0.9642677,0.7541046,1.535347,0.9743881
	c0.694416,0.2829819,0.9743843,0.6944199,1.8123055,1.1148682c0.8379288,0.4204559,0.5599518,0.1435089,1.6718216,1.3948593
	c0.5979691,0.5162888,1.0339355,1.1944504,1.2553787,1.9527969c0.265358,0.6357574,0.5927505,1.2438049,0.9774017,1.8153229
	c0.2799835,0.4174576,1.1148758,0.6944199,1.5323257,0.9753952c0.4582596,0.3067474,0.9840469,0.4978485,1.5323334,0.5569382
	c0.4204636,0,1.675827,1.2553711,2.3732681,1.3928452c0.6974335,0.1374741,0.7024384,1.5373535,0.7024384,1.5373535
	l-0.7024384,1.9497757l-0.5609589,2.090271l0.5609589,1.6718216c-0.3977051,0.3477402-0.8768234,0.5893478-1.3928528,0.7024384
	c-0.5137787,0-0.6884003,0.3261337-1.2513504,0.171608c-5.4160309-5.0407104-9.1949005-11.5906296-10.8477783-18.8024292H61.4494972
	z"/>
<path id="Path_183_1_" class="st1" d="M165,76h-4c-0.177002,0-0.352005,0.3062134-0.526001,0.3191452
	c-0.5165558-34.3763428-28.9063263-61.8266716-63.4103088-61.312027C63.2879181,15.51091,36.0296631,42.3804359,35.5240021,76.03125
	C35.3510056,76.0193024,31,76.0053482,31,76.0053482c-3.8659897,0-7,3.4103012-7,7.262001v21.9186096
	C24,109.0376511,27.1340103,112,31,112l12.7700043-0.0009918c7.3556061,18.1368713,23.2566528,31.6216888,42.4519958,35.733963
	C87.2850037,151.8716125,92.151001,155,98,155c6.6269989,0,12-4.0140991,12-8.9667053S104.6269989,137,98,137
	c-4.6119995,0-8.6109924,2.0133514-10.6199951,4.8647614C69.3554077,137.9723511,54.141861,125.0536423,48,107.7275314V77.2885513
	c0-27.2369576,22.661911-49.3168755,50-49.3168755s50,22.0799179,50,49.3168755V112h17c3.8659973,0,7-2.9633331,7-6.8150253
	V83.2663574C172,79.4146652,168.8659973,76,165,76z"/>
<path id="Path_186_1_" class="st1" d="M97.9898071,1.3309934c-11.2647934-0.0677795-20.4509506,9.1273575-20.5178604,20.5379105
	c-0.028595,4.877037,1.6469574,9.6070862,4.7301407,13.353096l15.8054733,22.9869995l15.9930496-23.2679977
	c0.5912628-0.7455521,1.1321564-1.5306702,1.6190491-2.3499985l0.1342697-0.2360001
	c5.6487656-9.8731003,2.3265228-22.5153275-7.4204483-28.2371979c-3.1434631-1.8453372-6.7164612-2.8067324-10.3496094-2.7847979
	L97.9898071,1.3309934z"/>
<linearGradient id="Path_184_2_" gradientUnits="userSpaceOnUse" x1="-577.2688599" y1="457.273407" x2="-577.2688599" y2="458.2706299" gradientTransform="matrix(44.5688782 0 0 -61.1702042 25826.2246094 28032.5078125)">
	<stop  offset="0" style="stop-color:#00AEEF"/>
	<stop  offset="0.517" style="stop-color:#7E19B1"/>
	<stop  offset="1" style="stop-color:#EE0042"/>
</linearGradient>
<path id="Path_184_1_" class="st2" d="M98.0085602,61L81.0045853,36.3328323
	c-7.7147598-9.4812889-6.3597183-23.4847527,3.0265732-31.2775917c9.3862991-7.7928476,23.2494354-6.4240923,30.9641953,3.0572042
	c5.4332504,6.6773691,6.5405197,15.9312649,2.8386688,23.7239304h0.2576675l-1.2290955,1.8089561
	c-0.4966202,0.8372383-1.0497971,1.6389046-1.6555786,2.3993034L98.0085602,61z M97.9898071,1.9979935
	c-11.0009003-0.0673294-19.9727783,8.9114685-20.0392532,20.054718c-0.0284271,4.764801,1.6088181,9.386055,4.6217422,13.0452881
	l15.4352646,22.447998l15.6188965-22.7229996c0.5770493-0.7297668,1.1047668-1.4981842,1.579567-2.3000031l0.1312943-0.2300034
	c5.5162659-9.6419449,2.2715912-21.9879608-7.2471771-27.5755997C105.0222931,2.9165268,101.5355072,1.9777527,97.9898071,1.9979935
	z"/>
<path class="st3" d="M97.9936523,34c-3.1152344,0-6.0576172-1.1835938-8.3100586-3.3486328
	c-2.3105469-2.2216797-3.6181641-5.2099609-3.6811523-8.4150391c-0.0629883-3.2041016,1.1254883-6.2421875,3.3466797-8.5527344
	c2.2216797-2.3105469,5.2099609-3.6181641,8.4145508-3.6816406c3.1992188-0.0839844,6.2421875,1.125,8.5527344,3.3466797
	s3.6181641,5.2099609,3.6816406,8.4150391c0.0634766,3.2041016-1.1259766,6.2421875-3.3466797,8.5527344
	c-2.2216797,2.3105469-5.2099609,3.6181641-8.4150391,3.6816406C98.1552734,34,98.0742188,34,97.9936523,34z M98.0058594,11
	c-0.0742188,0-0.1484375,0-0.2226562,0.0019531c-2.9375,0.0576172-5.6767578,1.2558594-7.7133789,3.375
	c-2.0361328,2.1181641-3.1254883,4.9023438-3.0673828,7.8398438c0.0576172,2.9375,1.2558594,5.6767578,3.3740234,7.7138672
	c2.1176758,2.0361328,4.887207,3.1298828,7.840332,3.0673828c2.9375-0.0576172,5.6767578-1.2558594,7.7138672-3.375
	c2.0361328-2.1181641,3.125-4.9023438,3.0673828-7.8398438s-1.2558594-5.6767578-3.375-7.7138672
	C103.5585938,12.0849609,100.8613281,11,98.0058594,11z"/>
</svg>
