<?xml version="1.0" encoding="utf-8"?>
<!-- Generator: Adobe Illustrator 23.0.4, SVG Export Plug-In . SVG Version: 6.00 Build 0)  -->
<svg version="1.1" id="Layer_1" xmlns="http://www.w3.org/2000/svg" xmlns:xlink="http://www.w3.org/1999/xlink" x="0px" y="0px"
	 viewBox="0 0 195 155" style="enable-background:new 0 0 195 155;" xml:space="preserve">
<style type="text/css">
	.st0{fill:#151719;}
	.st1{fill:url(#Path_204_2_);}
	.st2{fill:none;}
	.st3{fill:#FFFFFF;}
	.st4{fill:none;stroke:#FFFFFF;}
</style>
<g id="Group_177_1_" transform="translate(-83 -96)">
	<path id="Path_203_1_" class="st0" d="M226,118v22h-45v22h-45v22H90v47.9890137h182V118H226z"/>
	
		<linearGradient id="Path_204_2_" gradientUnits="userSpaceOnUse" x1="-499.3684082" y1="553.8571777" x2="-500.3492737" y2="553.8571777" gradientTransform="matrix(184.4370117 0 0 -68.3110046 92372.3828125 37985.5390625)">
		<stop  offset="0" style="stop-color:#00AEEF"/>
		<stop  offset="0.517" style="stop-color:#7E19B1"/>
		<stop  offset="1" style="stop-color:#EE0042"/>
	</linearGradient>
	<path id="Path_204_1_" class="st1" d="M136.9970551,185H90v-2h45v-22h45v-22h45v-22h47v2h-45v22l-45-0.0670319V163h-45
		L136.9970551,185z"/>
	<g id="Group_175_1_" transform="translate(97.801 175.696)">
		<g id="Path_205_1_" transform="translate(-96 -164.199)">
			<path class="st2" d="M113.6989975,200.4528656c-8.0499649,0-10.5,5.7502441-10.5,5.7502441v1.1575317
				c0,0.6309052,0.5188675,1.1423645,1.1589203,1.1423645h18.6739578c0.6445847,0,1.1671219-0.5150757,1.1671219-1.1504669l0,0
				v-1.1504669C124.1989975,206.2020721,121.7458878,200.4528656,113.6989975,200.4528656z"/>
			<path class="st3" d="M113.6985703,201.4629211c-3.0371628,0-5.5638046,0.8583679-7.509758,2.5512848
				c-1.1577301,1.0071716-1.761879,2.0313263-1.965126,2.418335v0.9281311c0,0.0726929,0.0600128,0.1318512,0.1337585,0.1318512
				h18.6740875c0.0782623,0,0.1419373-0.0627594,0.1419373-0.1399078v-0.9222565
				C122.717514,205.5542603,120.2360229,201.4629211,113.6985703,201.4629211 M113.6985703,200.4528656
				c8.0496826,0,10.499588,5.7497864,10.499588,5.7497864v1.1499634c0,0.6347961-0.5226517,1.1499634-1.166626,1.1499634
				h-18.6740875c-0.6393127,0-1.1584473-0.511734-1.1584473-1.1419067v-1.15802
				C103.1989975,206.202652,105.6488876,200.4528656,113.6985703,200.4528656z"/>
		</g>
		<g id="Ellipse_53_1_" transform="translate(4.554)">
			<ellipse class="st2" cx="13.1449986" cy="27.0542583" rx="5.8335619" ry="5.750257"/>
			<ellipse class="st4" cx="13.1449986" cy="27.0542583" rx="5.3212171" ry="5.2452283"/>
		</g>
	</g>
	<g id="Group_176_1_" transform="translate(140.088 154.064)">
		<g id="Path_206_1_" transform="translate(-133.143 -145.397)">
			<path class="st2" d="M149.8053131,179.8326263c-7.4743805,0-9.7503052,5.3572083-9.7503052,5.3572083v0.6425018
				c0,0.828537,0.6716614,1.5001831,1.5001984,1.5001831c0.0000153,0,0.0000153,0,0.0000153,0h16.4981689
				c0.828537,0,1.5002136-0.6716461,1.5002136-1.5001678c0-0.0000153,0-0.0000153,0-0.0000153v-0.6414642
				C159.5536041,185.1908722,157.2796936,179.8326263,149.8053131,179.8326263z"/>
			<path class="st3" d="M149.8048401,180.8573456c-2.8003235,0-5.1293945,0.7919769-6.9225159,2.3540039
				c-1.0498962,0.9145508-1.6059265,1.8446045-1.8025818,2.2159882v0.405365c0,0.2622375,0.2133484,0.4755859,0.4755859,0.4755859
				h16.4989777c0.2622375,0,0.4756012-0.2133484,0.4756012-0.4755859v-0.405365
				c-0.1966705-0.3713837-0.7527008-1.3014374-1.8025665-2.2160034
				C154.9342041,181.6493225,152.6051636,180.8573456,149.8048401,180.8573456 M149.8048401,179.8326263
				c7.4747925,0,9.7497864,5.3572388,9.7497864,5.3572388v0.6428375c0,0.8283234-0.6708221,1.5003052-1.5003204,1.5003052
				h-16.4989777c-0.8294983,0-1.5003204-0.6719818-1.5003204-1.5003052v-0.6428375
				C140.0550079,185.1898651,142.3300018,179.8326263,149.8048401,179.8326263z"/>
		</g>
		<g id="Ellipse_54_1_" transform="translate(4.391)">
			<circle class="st2" cx="12.2702904" cy="26.1856289" r="5.2496595"/>
			<circle class="st4" cx="12.2702904" cy="26.1856289" r="4.7372975"/>
		</g>
		<g id="Ellipse_55_1_" transform="translate(17.565)">
			<circle class="st2" cx="11.8459883" cy="25.4355354" r="4.4995613"/>
			<circle class="st4" cx="11.8459883" cy="25.4355354" r="3.9871995"/>
		</g>
		<g id="Path_207_1_" transform="translate(-131.003 -145.575)">
			<path class="st2" d="M160.113739,178.5114594c-1.4376373-0.0226746-2.8625031,0.2726593-4.172699,0.8648529
				c1.8156128,1.1993866,3.2777863,2.8621063,4.235199,4.8161621l0.1342316,0.3166504h6.8308563
				c0.4161072-0.0050507,0.7557678-0.3343506,0.7736816-0.7500916v-0.9652863
				C167.9150085,182.7937469,166.0920258,178.5114594,160.113739,178.5114594z"/>
			<path class="st3" d="M160.1141968,179.5361633c-0.7172546,0-1.4007568,0.0694733-2.0458221,0.207428
				c1.6930237,1.5292511,2.5768738,3.0785065,2.9073029,3.7432251h5.9141235v-0.4527435
				C166.506897,182.3234558,164.7108307,179.5361633,160.1141968,179.5361633 M160.1141968,178.5114441
				c5.9803314,0,7.8003235,4.2851105,7.8003235,4.2851105v0.9648132c0,0-0.0466614,0.7501678-0.7734985,0.7501678h-6.8308258
				l-0.1341553-0.3161621c-0.0758514-0.1784973-1.2390137-2.7941284-4.2350006-4.8194427
				C157.0283661,178.8707733,158.3945312,178.5114441,160.1141968,178.5114441z"/>
		</g>
	</g>
	<g>
		<rect id="Rectangle_127_1_" x="192" y="151" class="st3" width="3" height="3"/>
		<rect id="Rectangle_128_1_" x="192" y="157" class="st3" width="3" height="3"/>
		<rect id="Rectangle_129_1_" x="192" y="163" class="st3" width="3" height="3"/>
		<rect id="Rectangle_130_1_" x="199" y="152" class="st3" width="20" height="1"/>
		<rect id="Rectangle_131_1_" x="199" y="158" class="st3" width="20" height="1"/>
		<rect id="Rectangle_132_1_" x="199" y="164" class="st3" width="20" height="1"/>
	</g>
	<g id="Path_208_1_" transform="translate(20.034 1.427)">
		<path class="st2" d="M232.8734894,140.0696564c6.7048492-1.9161835,7.0922394-10.8098755,7.0922394-10.8098755h-3.9269714
			c0.1354828-1.0327606,0.1886749-1.6867752,0.1886749-1.6867752h-13.5220947c0,0,0.054184,0.6540146,0.1886749,1.6867752
			h-3.9279785c0,0,0.3873749,8.893692,7.0922241,10.8098755l0,0c0.5345764,0.9653015,1.3865356,1.7283325,2.4196014,2.167038
			v1.9962311c-2.8631744,0.8511963-4.3153534,5.1687012-4.3153534,5.1687012s0.8349762,1.1713715,5.3038788,1.1713715
			c4.5160675,0,5.277771-1.1713715,5.277771-1.1713715s-1.411026-4.2608795-4.2330627-5.1511383v-2.0411224
			C231.5163879,141.764328,232.3455505,141.0133057,232.8734894,140.0696564z M235.8370361,130.6449432h3.0016785
			c0,0-1.4963226,6.3732758-4.9476013,7.4431305c0.927887-2.404007,1.5807953-4.9001007,1.9469299-7.4431305H235.8370361z
			 M220.0920258,130.6449432h3.0026855c0.3661804,2.5430298,1.0190887,5.0391083,1.9469299,7.4431305
			c-3.4522858-1.0679169-4.9486084-7.4431305-4.9486084-7.4431305H220.0920258z"/>
		<path class="st3" d="M229.4659882,149.5952148c2.324646,0,3.5098114-0.3243561,4.0649109-0.5608521
			c-0.5570526-1.2883911-1.7448883-3.3583527-3.3296509-3.8581848l-0.6940308-0.2188873v-0.7096558v-2.0344543v-0.6754608
			l0.6498566-0.2380524c0.6467285-0.2369232,1.2742615-0.8244019,1.8652039-1.74617l0.2021332-0.3153076l0.1147308-0.0327911
			l0.6233521-1.4861908c0.9781799-2.3320923,1.5641174-5.2152863,1.8833923-7.2233276l0.1106415-0.6957855l0.0872192-0.6638794
			c0.0279694-0.2127686,0.0523529-0.4094238,0.07341-0.5870667h-11.3009338
			c0.0210266,0.1779327,0.0453339,0.3748474,0.0731354,0.5879669l0.0833282,0.6389771l0.1144409,0.7198029
			c0.3189545,2.0061798,0.9047852,4.8878632,1.8843536,7.2233124l0.7928619,1.8902893l0.1444855-0.0597076
			c0.6040344,0.9426727,1.2446594,1.5361328,1.9040985,1.7639008l0.6677094,0.2306519v0.6892242v1.9966125v0.7223511
			l-0.7101898,0.2111511c-1.6041107,0.476944-2.8165741,2.5599823-3.3879242,3.8622131
			C225.9535217,149.2675629,227.154129,149.5952148,229.4659882,149.5952148 M229.4659882,150.5713654
			c-4.4686127,0-5.3038788-1.1725464-5.3038788-1.1725464s1.4519653-4.3173981,4.3149567-5.1686401v-1.9966125
			c-0.9470215-0.3271179-1.7463379-1.1162567-2.4199371-2.16745l0.0010071,0.003891
			c-6.7049561-1.9160614-7.0921326-10.8100433-7.0921326-10.8100433h3.9277649
			c-0.1347046-1.0327454-0.1885834-1.6869659-0.1885834-1.6869659h13.5226288c0,0-0.052887,0.6542206-0.1885986,1.6869659h3.9267883
			c0,0-0.387207,8.8939819-7.0921631,10.8100433c-0.6595917,1.0288696-1.440979,1.8053741-2.3630524,2.1431732v2.0344543
			c2.8220825,0.8900909,4.233139,5.1511841,4.233139,5.1511841S233.9785461,150.5713654,229.4659882,150.5713654z
			 M235.8376617,130.6450806c-0.3423157,2.1528778-0.9460449,5.0589752-1.9459381,7.4428558
			c3.4517517-1.0696259,4.9476166-7.4428558,4.9476166-7.4428558H235.8376617z M225.0422516,138.0879364
			c-0.9998779-2.3838806-1.6046295-5.289978-1.9468994-7.4428558h-3.0027161
			C220.0926361,130.6450806,221.5895081,137.0202484,225.0422516,138.0879364z"/>
	</g>
</g>
</svg>
