<?xml version="1.0" encoding="utf-8"?>
<!-- Generator: Adobe Illustrator 23.0.4, SVG Export Plug-In . SVG Version: 6.00 Build 0)  -->
<svg version="1.1" id="Layer_1" xmlns="http://www.w3.org/2000/svg" xmlns:xlink="http://www.w3.org/1999/xlink" x="0px" y="0px"
	 viewBox="0 0 195 155" style="enable-background:new 0 0 195 155;" xml:space="preserve">
<style type="text/css">
	.st0{fill:#121417;}
	.st1{opacity:0.06;fill:#FFFFFF;enable-background:new    ;}
	.st2{fill:url(#Rectangle_112_2_);}
	.st3{fill:url(#Rectangle_114_2_);}
	.st4{fill:url(#Rectangle_115_2_);}
	.st5{enable-background:new    ;}
	.st6{fill:#FFFFFF;}
</style>
<g>
	<path id="Path_173_1_" class="st0" d="M182.9308472,15h-24.9252319L158,33h-17V15H55v18H38V15H12.9052801
		c-5.0489683,0.1362829-9.0327892,4.3153553-8.9021568,9.3384666v108.3230591
		c-0.1306314,5.0231171,3.853189,9.202179,8.9021568,9.3384705h170.0255737
		c5.0489807-0.1362915,9.0327911-4.3153534,8.9021606-9.3384705V24.3384666
		C191.9636383,19.3153591,187.9798126,15.1362867,182.9308472,15z"/>
	<rect x="22" y="78" class="st1" width="150" height="2"/>
	<rect x="22" y="100" class="st1" width="150" height="2"/>
	<rect x="22" y="120" class="st1" width="150" height="2"/>
	
		<linearGradient id="Rectangle_112_2_" gradientUnits="userSpaceOnUse" x1="-581.1367798" y1="341" x2="-580.1495972" y2="341" gradientTransform="matrix(78 0 0 -2 45387.6679688 783)">
		<stop  offset="0" style="stop-color:#791FB3"/>
		<stop  offset="1" style="stop-color:#5747C4"/>
	</linearGradient>
	<rect id="Rectangle_112_1_" x="59" y="100" class="st2" width="77" height="2"/>
	
		<linearGradient id="Rectangle_114_2_" gradientUnits="userSpaceOnUse" x1="-580.1495972" y1="341" x2="-581.1495972" y2="341" gradientTransform="matrix(78 0 0 -2 45415.6679688 803)">
		<stop  offset="0" style="stop-color:#01ACEE"/>
		<stop  offset="1" style="stop-color:#2F76D8"/>
	</linearGradient>
	<rect id="Rectangle_114_1_" x="86" y="120" class="st3" width="78" height="2"/>
	
		<linearGradient id="Rectangle_115_2_" gradientUnits="userSpaceOnUse" x1="-581.1367798" y1="341" x2="-580.1495972" y2="341" gradientTransform="matrix(78 0 0 -2 45358.6679688 761)">
		<stop  offset="0" style="stop-color:#EC1944"/>
		<stop  offset="1" style="stop-color:#A3118D"/>
	</linearGradient>
	<rect id="Rectangle_115_1_" x="30" y="78" class="st4" width="77" height="2"/>
	<g class="st5">
		<path class="st6" d="M25.4619141,60.7929688v-8.5673828h2.5888672l1.5546875,5.84375l1.5366211-5.84375h2.5947266v8.5673828
			h-1.6069336v-6.7441406l-1.7006836,6.7441406h-1.6655273l-1.6943359-6.7441406v6.7441406H25.4619141z"/>
	</g>
	<g class="st5">
		<path class="st6" d="M50.3530273,60.7929688v-7.1171875h-2.5419922v-1.4501953h6.8076172v1.4501953h-2.5361328v7.1171875
			H50.3530273z"/>
	</g>
	<g class="st5">
		<path class="st6" d="M71.5810547,60.7929688l-2.0454102-8.5673828h1.7705078l1.2915039,5.8847656l1.565918-5.8847656h2.0571289
			l1.5019531,5.984375l1.3149414-5.984375h1.7412109l-2.0800781,8.5673828h-1.8349609l-1.706543-6.4042969l-1.7006836,6.4042969
			H71.5810547z"/>
	</g>
	<g class="st5">
		<path class="st6" d="M98.2246094,60.7929688v-7.1171875h-2.5419922v-1.4501953h6.8076172v1.4501953h-2.5361328v7.1171875
			H98.2246094z"/>
	</g>
	<g class="st5">
		<path class="st6" d="M118.2490234,60.7929688v-8.5673828h5.8730469v1.4501953h-4.1430664v2.0273438h3.5761719v1.4492188
			h-3.5761719v3.640625H118.2490234z"/>
	</g>
	<g class="st5">
		<path class="st6" d="M138.7431641,58.0058594l1.6826172-0.1640625c0.1015625,0.5654297,0.3071289,0.9794922,0.6166992,1.2451172
			c0.3095703,0.2646484,0.7275391,0.3974609,1.253418,0.3974609c0.5571289,0,0.9770508-0.1181641,1.2592773-0.3535156
			c0.2827148-0.2363281,0.4238281-0.5117188,0.4238281-0.8271484c0-0.203125-0.0595703-0.375-0.1782227-0.5175781
			c-0.1191406-0.1416016-0.3261719-0.265625-0.6225586-0.3710938c-0.2026367-0.0703125-0.6640625-0.1943359-1.3847656-0.3740234
			c-0.9272461-0.2294922-1.5776367-0.5117188-1.9516602-0.8466797c-0.5263672-0.4716797-0.7890625-1.046875-0.7890625-1.7246094
			c0-0.4355469,0.1235352-0.84375,0.3710938-1.2236328c0.2470703-0.3798828,0.6040039-0.6689453,1.0693359-0.8681641
			c0.465332-0.1982422,1.0273438-0.2978516,1.6860352-0.2978516c1.0751953,0,1.8842773,0.2353516,2.4277344,0.7070312
			s0.8291016,1.1005859,0.8564453,1.8876953l-1.7299805,0.0761719c-0.0737305-0.4404297-0.2329102-0.7568359-0.4760742-0.9501953
			c-0.2436523-0.1923828-0.6088867-0.2890625-1.0957031-0.2890625c-0.5024414,0-0.8959961,0.1035156-1.1806641,0.3095703
			c-0.1831055,0.1328125-0.2744141,0.3095703-0.2744141,0.5322266c0,0.2021484,0.0854492,0.3759766,0.2568359,0.5195312
			c0.2182617,0.1835938,0.7480469,0.3740234,1.5898438,0.5732422c0.8413086,0.1982422,1.4638672,0.4042969,1.8666992,0.6162109
			c0.4033203,0.2119141,0.7192383,0.5029297,0.9467773,0.8710938c0.2280273,0.3681641,0.3417969,0.8222656,0.3417969,1.3642578
			c0,0.4902344-0.1362305,0.9501953-0.4086914,1.3789062c-0.2729492,0.4287109-0.6586914,0.7470703-1.1572266,0.9550781
			c-0.4985352,0.2089844-1.1201172,0.3134766-1.8642578,0.3134766c-1.0830078,0-1.9145508-0.2509766-2.4951172-0.7509766
			C139.2026367,59.6933594,138.855957,58.9638672,138.7431641,58.0058594z"/>
	</g>
	<g class="st5">
		<path class="st6" d="M160.684082,58.0058594l1.6826172-0.1640625c0.1015625,0.5654297,0.3071289,0.9794922,0.6166992,1.2451172
			c0.3095703,0.2646484,0.7275391,0.3974609,1.253418,0.3974609c0.5571289,0,0.9770508-0.1181641,1.2592773-0.3535156
			c0.2827148-0.2363281,0.4238281-0.5117188,0.4238281-0.8271484c0-0.203125-0.0595703-0.375-0.1782227-0.5175781
			c-0.1191406-0.1416016-0.3261719-0.265625-0.6225586-0.3710938c-0.2026367-0.0703125-0.6640625-0.1943359-1.3847656-0.3740234
			c-0.9272461-0.2294922-1.5776367-0.5117188-1.9516602-0.8466797c-0.5263672-0.4716797-0.7890625-1.046875-0.7890625-1.7246094
			c0-0.4355469,0.1235352-0.84375,0.3710938-1.2236328c0.2470703-0.3798828,0.6040039-0.6689453,1.0693359-0.8681641
			c0.465332-0.1982422,1.0273438-0.2978516,1.6860352-0.2978516c1.0751953,0,1.8842773,0.2353516,2.4277344,0.7070312
			s0.8291016,1.1005859,0.8564453,1.8876953l-1.7299805,0.0761719c-0.0737305-0.4404297-0.2329102-0.7568359-0.4760742-0.9501953
			c-0.2436523-0.1923828-0.6088867-0.2890625-1.0957031-0.2890625c-0.5024414,0-0.8959961,0.1035156-1.1806641,0.3095703
			c-0.1831055,0.1328125-0.2744141,0.3095703-0.2744141,0.5322266c0,0.2021484,0.0854492,0.3759766,0.2568359,0.5195312
			c0.2182617,0.1835938,0.7480469,0.3740234,1.5898438,0.5732422c0.8413086,0.1982422,1.4638672,0.4042969,1.8666992,0.6162109
			c0.4033203,0.2119141,0.7192383,0.5029297,0.9467773,0.8710938c0.2280273,0.3681641,0.3417969,0.8222656,0.3417969,1.3642578
			c0,0.4902344-0.1362305,0.9501953-0.4086914,1.3789062c-0.2729492,0.4287109-0.6586914,0.7470703-1.1572266,0.9550781
			c-0.4985352,0.2089844-1.1201172,0.3134766-1.8642578,0.3134766c-1.0830078,0-1.9145508-0.2509766-2.4951172-0.7509766
			C161.1435547,59.6933594,160.796875,58.9638672,160.684082,58.0058594z"/>
	</g>
</g>
</svg>
