<?xml version="1.0" encoding="utf-8"?>
<!-- Generator: Adobe Illustrator 23.0.4, SVG Export Plug-In . SVG Version: 6.00 Build 0)  -->
<svg version="1.1" id="Layer_1" xmlns="http://www.w3.org/2000/svg" xmlns:xlink="http://www.w3.org/1999/xlink" x="0px" y="0px"
	 viewBox="0 0 195 155" style="enable-background:new 0 0 195 155;" xml:space="preserve">
<style type="text/css">
	.st0{fill:#151719;}
	.st1{fill:url(#Path_212_2_);}
	.st2{fill:#FFFFFF;}
</style>
<g id="Group_179_1_" transform="translate(-80.5 -79.5)">
	<path id="Path_209_1_" class="st0" d="M133.897995,152.6040039"/>
	<path id="Path_210_1_" class="st0" d="M178.7659912,129.102005"/>
	<path id="Path_211_1_" class="st0" d="M89.0299988,213.5H268.5V105.6000061l0,0l-59.8240051,70.5059967l-59.8240051-36.3209991
		L89.0299988,213.5z"/>
	
		<linearGradient id="Path_212_2_" gradientUnits="userSpaceOnUse" x1="-502.3507385" y1="539.2459717" x2="-502.3507385" y2="538.2459717" gradientTransform="matrix(181.1130066 0 0 -109.2590103 91161.015625 59022.3984375)">
		<stop  offset="0" style="stop-color:#00AEEF"/>
		<stop  offset="0.517" style="stop-color:#7E19B1"/>
		<stop  offset="1" style="stop-color:#EE0042"/>
	</linearGradient>
	<path id="Path_212_1_" class="st1" d="M89.8569946,214.1719971l-1.6549988-1.352005l60.4080048-73.8909912l59.8379974,35.7999878
		l59.2369995-69.8159943l1.6300049,1.3819962l-60.4099884,71.1999893l-59.8089905-35.7789917L89.8569946,214.1719971z"/>
	<g>
		<circle id="Ellipse_58_10_" class="st0" cx="89" cy="213" r="7.5"/>
		<path id="Ellipse_58_3_" class="st2" d="M89,206.5c3.5841064,0,6.5,2.9158936,6.5,6.5s-2.9158936,6.5-6.5,6.5
			s-6.5-2.9158936-6.5-6.5S85.4158936,206.5,89,206.5 M89,205.5c-4.1421204,0-7.5,3.3578491-7.5,7.5s3.3578796,7.5,7.5,7.5
			c4.1421509,0,7.5-3.3578491,7.5-7.5S93.1421509,205.5,89,205.5L89,205.5z"/>
	</g>
	<g>
		<circle id="Ellipse_58_8_" class="st0" cx="149" cy="142" r="7.5"/>
		<path id="Ellipse_58_1_" class="st2" d="M149,135.5c3.5841064,0,6.5,2.9158936,6.5,6.5s-2.9158936,6.5-6.5,6.5
			s-6.5-2.9158936-6.5-6.5S145.4158936,135.5,149,135.5 M149,134.5c-4.1421204,0-7.5,3.3578491-7.5,7.5s3.3578796,7.5,7.5,7.5
			c4.1421509,0,7.5-3.3578491,7.5-7.5S153.1421509,134.5,149,134.5L149,134.5z"/>
	</g>
	<g>
		<circle id="Ellipse_58_6_" class="st0" cx="208" cy="174" r="7.5"/>
		<path id="Ellipse_58_2_" class="st2" d="M208,167.5c3.5841064,0,6.5,2.9158936,6.5,6.5s-2.9158936,6.5-6.5,6.5
			s-6.5-2.9158936-6.5-6.5S204.4158936,167.5,208,167.5 M208,166.5c-4.1421204,0-7.5,3.3578491-7.5,7.5s3.3578796,7.5,7.5,7.5
			c4.1421509,0,7.5-3.3578491,7.5-7.5S212.1421509,166.5,208,166.5L208,166.5z"/>
	</g>
	<g>
		<circle id="Ellipse_58_7_" class="st0" cx="268" cy="107" r="7.5"/>
		<path id="Ellipse_58_4_" class="st2" d="M268,100.5c3.5841064,0,6.5,2.9158936,6.5,6.5s-2.9158936,6.5-6.5,6.5
			s-6.5-2.9158936-6.5-6.5S264.4158936,100.5,268,100.5 M268,99.5c-4.1421509,0-7.5,3.3578491-7.5,7.5s3.3578491,7.5,7.5,7.5
			s7.5-3.3578491,7.5-7.5S272.1421509,99.5,268,99.5L268,99.5z"/>
	</g>
</g>
</svg>
