<svg id="visual" viewBox="0 0 2800 600" width="2800" height="600" xmlns="http://www.w3.org/2000/svg" xmlns:xlink="http://www.w3.org/1999/xlink" version="1.1"><rect x="0" y="0" width="2800" height="600" fill="#1e2024"></rect><path d="M0 410L51.8 396.5C103.7 383 207.3 356 311 351.5C414.7 347 518.3 365 622 367.5C725.7 370 829.3 357 933 348C1036.7 339 1140.3 334 1244.2 350.2C1348 366.3 1452 403.7 1555.8 405.7C1659.7 407.7 1763.3 374.3 1867 362.7C1970.7 351 2074.3 361 2178 377.8C2281.7 394.7 2385.3 418.3 2489 417C2592.7 415.7 2696.3 389.3 2748.2 376.2L2800 363L2800 601L2748.2 601C2696.3 601 2592.7 601 2489 601C2385.3 601 2281.7 601 2178 601C2074.3 601 1970.7 601 1867 601C1763.3 601 1659.7 601 1555.8 601C1452 601 1348 601 1244.2 601C1140.3 601 1036.7 601 933 601C829.3 601 725.7 601 622 601C518.3 601 414.7 601 311 601C207.3 601 103.7 601 51.8 601L0 601Z" fill="#6946e6"></path><path d="M0 366L51.8 368.8C103.7 371.7 207.3 377.3 311 391.3C414.7 405.3 518.3 427.7 622 430.8C725.7 434 829.3 418 933 416.8C1036.7 415.7 1140.3 429.3 1244.2 430C1348 430.7 1452 418.3 1555.8 398.2C1659.7 378 1763.3 350 1867 346.2C1970.7 342.3 2074.3 362.7 2178 360.5C2281.7 358.3 2385.3 333.7 2489 345.8C2592.7 358 2696.3 407 2748.2 431.5L2800 456L2800 601L2748.2 601C2696.3 601 2592.7 601 2489 601C2385.3 601 2281.7 601 2178 601C2074.3 601 1970.7 601 1867 601C1763.3 601 1659.7 601 1555.8 601C1452 601 1348 601 1244.2 601C1140.3 601 1036.7 601 933 601C829.3 601 725.7 601 622 601C518.3 601 414.7 601 311 601C207.3 601 103.7 601 51.8 601L0 601Z" fill="#5442cf"></path><path d="M0 408L51.8 409.2C103.7 410.3 207.3 412.7 311 417.8C414.7 423 518.3 431 622 437.3C725.7 443.7 829.3 448.3 933 440.8C1036.7 433.3 1140.3 413.7 1244.2 406.7C1348 399.7 1452 405.3 1555.8 417.3C1659.7 429.3 1763.3 447.7 1867 459.3C1970.7 471 2074.3 476 2178 459.2C2281.7 442.3 2385.3 403.7 2489 393.2C2592.7 382.7 2696.3 400.3 2748.2 409.2L2800 418L2800 601L2748.2 601C2696.3 601 2592.7 601 2489 601C2385.3 601 2281.7 601 2178 601C2074.3 601 1970.7 601 1867 601C1763.3 601 1659.7 601 1555.8 601C1452 601 1348 601 1244.2 601C1140.3 601 1036.7 601 933 601C829.3 601 725.7 601 622 601C518.3 601 414.7 601 311 601C207.3 601 103.7 601 51.8 601L0 601Z" fill="#413db8"></path><path d="M0 407L51.8 415.7C103.7 424.3 207.3 441.7 311 440.2C414.7 438.7 518.3 418.3 622 423.7C725.7 429 829.3 460 933 457.5C1036.7 455 1140.3 419 1244.2 404.7C1348 390.3 1452 397.7 1555.8 415.8C1659.7 434 1763.3 463 1867 464.2C1970.7 465.3 2074.3 438.7 2178 428.8C2281.7 419 2385.3 426 2489 438.8C2592.7 451.7 2696.3 470.3 2748.2 479.7L2800 489L2800 601L2748.2 601C2696.3 601 2592.7 601 2489 601C2385.3 601 2281.7 601 2178 601C2074.3 601 1970.7 601 1867 601C1763.3 601 1659.7 601 1555.8 601C1452 601 1348 601 1244.2 601C1140.3 601 1036.7 601 933 601C829.3 601 725.7 601 622 601C518.3 601 414.7 601 311 601C207.3 601 103.7 601 51.8 601L0 601Z" fill="#3137a0"></path><path d="M0 517L51.8 499.5C103.7 482 207.3 447 311 446.8C414.7 446.7 518.3 481.3 622 494.7C725.7 508 829.3 500 933 495.2C1036.7 490.3 1140.3 488.7 1244.2 476.5C1348 464.3 1452 441.7 1555.8 436C1659.7 430.3 1763.3 441.7 1867 452C1970.7 462.3 2074.3 471.7 2178 468.8C2281.7 466 2385.3 451 2489 438.7C2592.7 426.3 2696.3 416.7 2748.2 411.8L2800 407L2800 601L2748.2 601C2696.3 601 2592.7 601 2489 601C2385.3 601 2281.7 601 2178 601C2074.3 601 1970.7 601 1867 601C1763.3 601 1659.7 601 1555.8 601C1452 601 1348 601 1244.2 601C1140.3 601 1036.7 601 933 601C829.3 601 725.7 601 622 601C518.3 601 414.7 601 311 601C207.3 601 103.7 601 51.8 601L0 601Z" fill="#223089"></path><path d="M0 454L51.8 452.5C103.7 451 207.3 448 311 446C414.7 444 518.3 443 622 451.7C725.7 460.3 829.3 478.7 933 481.2C1036.7 483.7 1140.3 470.3 1244.2 464.3C1348 458.3 1452 459.7 1555.8 468.5C1659.7 477.3 1763.3 493.7 1867 497.3C1970.7 501 2074.3 492 2178 495.5C2281.7 499 2385.3 515 2489 515C2592.7 515 2696.3 499 2748.2 491L2800 483L2800 601L2748.2 601C2696.3 601 2592.7 601 2489 601C2385.3 601 2281.7 601 2178 601C2074.3 601 1970.7 601 1867 601C1763.3 601 1659.7 601 1555.8 601C1452 601 1348 601 1244.2 601C1140.3 601 1036.7 601 933 601C829.3 601 725.7 601 622 601C518.3 601 414.7 601 311 601C207.3 601 103.7 601 51.8 601L0 601Z" fill="#162972"></path><path d="M0 515L51.8 510C103.7 505 207.3 495 311 497.7C414.7 500.3 518.3 515.7 622 521.3C725.7 527 829.3 523 933 521.8C1036.7 520.7 1140.3 522.3 1244.2 520.7C1348 519 1452 514 1555.8 511.8C1659.7 509.7 1763.3 510.3 1867 504.5C1970.7 498.7 2074.3 486.3 2178 484C2281.7 481.7 2385.3 489.3 2489 497C2592.7 504.7 2696.3 512.3 2748.2 516.2L2800 520L2800 601L2748.2 601C2696.3 601 2592.7 601 2489 601C2385.3 601 2281.7 601 2178 601C2074.3 601 1970.7 601 1867 601C1763.3 601 1659.7 601 1555.8 601C1452 601 1348 601 1244.2 601C1140.3 601 1036.7 601 933 601C829.3 601 725.7 601 622 601C518.3 601 414.7 601 311 601C207.3 601 103.7 601 51.8 601L0 601Z" fill="#0e225b"></path><path d="M0 519L51.8 518.8C103.7 518.7 207.3 518.3 311 525.8C414.7 533.3 518.3 548.7 622 556C725.7 563.3 829.3 562.7 933 557.5C1036.7 552.3 1140.3 542.7 1244.2 535.8C1348 529 1452 525 1555.8 526.8C1659.7 528.7 1763.3 536.3 1867 536C1970.7 535.7 2074.3 527.3 2178 526C2281.7 524.7 2385.3 530.3 2489 531.3C2592.7 532.3 2696.3 528.7 2748.2 526.8L2800 525L2800 601L2748.2 601C2696.3 601 2592.7 601 2489 601C2385.3 601 2281.7 601 2178 601C2074.3 601 1970.7 601 1867 601C1763.3 601 1659.7 601 1555.8 601C1452 601 1348 601 1244.2 601C1140.3 601 1036.7 601 933 601C829.3 601 725.7 601 622 601C518.3 601 414.7 601 311 601C207.3 601 103.7 601 51.8 601L0 601Z" fill="#091a45"></path><path d="M0 544L51.8 549.8C103.7 555.7 207.3 567.3 311 574.5C414.7 581.7 518.3 584.3 622 577.7C725.7 571 829.3 555 933 548.2C1036.7 541.3 1140.3 543.7 1244.2 545C1348 546.3 1452 546.7 1555.8 553C1659.7 559.3 1763.3 571.7 1867 578C1970.7 584.3 2074.3 584.7 2178 582.2C2281.7 579.7 2385.3 574.3 2489 569.8C2592.7 565.3 2696.3 561.7 2748.2 559.8L2800 558L2800 601L2748.2 601C2696.3 601 2592.7 601 2489 601C2385.3 601 2281.7 601 2178 601C2074.3 601 1970.7 601 1867 601C1763.3 601 1659.7 601 1555.8 601C1452 601 1348 601 1244.2 601C1140.3 601 1036.7 601 933 601C829.3 601 725.7 601 622 601C518.3 601 414.7 601 311 601C207.3 601 103.7 601 51.8 601L0 601Z" fill="#081230"></path></svg>